<?xml version="1.0" encoding="UTF-8" standalone="no"?>
<svg
   version="1.1"
   viewBox="0 0 334.73599 334.736"
   id="svg40"
   sodipodi:docname="logo_condensed.svg"
   inkscape:version="1.3.1 (5ab75fa947, 2023-11-03)"
   width="334.73599"
   height="334.73599"
   inkscape:export-filename="logo_condensed_forgejo.png"
   inkscape:export-xdpi="96"
   inkscape:export-ydpi="96"
   xmlns:inkscape="http://www.inkscape.org/namespaces/inkscape"
   xmlns:sodipodi="http://sodipodi.sourceforge.net/DTD/sodipodi-0.dtd"
   xmlns="http://www.w3.org/2000/svg"
   xmlns:svg="http://www.w3.org/2000/svg">
  <defs
     id="defs44" />
  <sodipodi:namedview
     id="namedview42"
     pagecolor="#505050"
     bordercolor="#eeeeee"
     borderopacity="1"
     inkscape:pageshadow="0"
     inkscape:pageopacity="0"
     inkscape:pagecheckerboard="0"
     showgrid="false"
     inkscape:zoom="2.8284271"
     inkscape:cx="87.327687"
     inkscape:cy="132.40574"
     inkscape:window-width="2560"
     inkscape:window-height="1369"
     inkscape:window-x="-8"
     inkscape:window-y="-8"
     inkscape:window-maximized="1"
     inkscape:current-layer="g4"
     inkscape:showpageshadow="0"
     inkscape:deskcolor="#d1d1d1"
     showguides="true">
    <sodipodi:guide
       position="264.97068,-61.5051"
       orientation="1,0"
       id="guide1"
       inkscape:locked="false" />
    <sodipodi:guide
       position="93.001002,77.044749"
       orientation="1,0"
       id="guide2"
       inkscape:locked="false" />
    <sodipodi:guide
       position="109.56249,95.005809"
       orientation="1,0"
       id="guide3"
       inkscape:locked="false" />
    <sodipodi:guide
       position="163.99999,77.505809"
       orientation="1,0"
       id="guide4"
       inkscape:locked="false" />
    <sodipodi:guide
       position="179,1.5058096"
       orientation="1,0"
       id="guide5"
       inkscape:locked="false" />
  </sodipodi:namedview>
  <g
     id="g1"
     transform="translate(-1,84.932692)">
    <path
       fill="#6b438b"
       d="m 271.24983,105.65061 q -0.36,4.08 -0.31,8.47 0.05,4.56 -4.49,8.19 -9.11,7.28 -17.84,-0.35 c -5.3,-4.65 -3.99,-10.34 -4.42,-16.25 -11.33,-3.3 -21.65,-12.470005 -22.8,-24.590005 q -0.53,-5.59 -0.95,-11.21 -0.04,-0.52 -0.53,-0.64 c -4.87,-1.23 -7.99,-2.08 -10.29,-6.94 -3.9,-8.23 0.79,-15.35 8.92,-18.12 a 0.39,0.4 77.9 0 0 0.27,-0.41 c -0.74,-8.02 -1.4,-15.08 1.56,-22.79 3.11,-8.09 9.57,-14.2599996 17.53,-17.6199996 q 4.11,-1.73 10.44,-2.07 8.68,-0.46000001 17.4,-0.26 16.85,0.37 26.28,13.5899996 c 6.43,9.02 5.96,18.48 5.03,29.16 q -0.05,0.51 0.45,0.64 c 13.7,3.61 12.56,22.82 -1.42,24.78 a 0.71,0.71 0 0 0 -0.61,0.65 c -0.38,5.39 -0.17,11.34 -2.1,16.46 q -5.7,15.160005 -22.12,19.310005 z"
       id="path28"
       style="display:inline" />
    <path
       fill="#eceff4"
       d="m 142.39,41.700605 -31,11.57 a 0.62,0.61 79.8 0 1 -0.83,-0.58 l 0.01,-19.31 q 0,-0.55 0.51,-0.74 23.03,-8.68 46.02,-17.25 c 2.57,-0.96 4.78,-0.76 7.42,-0.75 a 0.49,0.49 0 0 1 0.49,0.49 V 147.45061 a 0.79,0.79 0 0 1 -0.8,0.79 l -19.99,-0.01 q -1.17,0 -1.17,-1.16 V 42.160605 a 0.49,0.49 0 0 0 -0.66,-0.46 z"
       id="path30"
       style="display:inline" />
    <path
       fill="#eceff4"
       d="m 59.21,74.480605 h 33.95 a 0.84,0.84 0 0 1 0.84,0.84 l -0.01,18.96 a 0.84,0.84 0 0 1 -0.84,0.84 l -33.88,0.03 a 0.84,0.84 0 0 0 -0.84,0.84 l -0.08,38.580005 a 0.84,0.84 0 0 1 -0.84,0.84 l -20.11,-0.01 a 0.84,0.84 0 0 1 -0.84,-0.84 L 36.55,95.980605 a 0.84,0.84 0 0 0 -0.84,-0.84 H 1.84 a 0.84,0.84 0 0 1 -0.84,-0.84 l 0.02,-19.02 a 0.84,0.84 0 0 1 0.84,-0.84 l 33.86,0.02 a 0.84,0.84 0 0 0 0.84,-0.84 v -35.79 a 0.84,0.84 0 0 1 0.84,-0.84 l 20.13,-0.02 a 0.84,0.84 0 0 1 0.84,0.84 v 35.83 a 0.84,0.84 0 0 0 0.84,0.84 z"
       id="path32"
       style="display:inline" />
    <path
       fill="#533566"
       d="m 244.18983,105.71061 c 0.43,5.91 -0.88,11.6 4.42,16.25 q 8.73,7.63 17.84,0.35 4.54,-3.63 4.49,-8.19 -0.05,-4.39 0.31,-8.47 24.6,4 42.34,20.72 l -0.18,37.49 -110.93,0.01 -0.09,-37.61 q 17.53,-16.43 41.8,-20.55 z"
       id="path34"
       style="display:inline" />
    <path
       fill="#6b438b"
       d="m 202.38983,126.26061 0.09,37.61 -21.38,-0.49 a 1.13,1.13 0 0 1 -1.04,-1.49 q 7.21,-21.29 22.33,-35.63 z"
       id="path36"
       style="display:inline" />
    <path
       fill="#6b438b"
       d="m 313.58983,126.37061 q 12.71,12.03 19.9,29.52 1.79,4.36 2.23,6.86 0.11,0.61 -0.51,0.62 l -21.8,0.49 z"
       id="path38"
       style="display:inline" />
    <g
       transform="matrix(0.77226665,0,0,0.77226665,154.89692,5.2164554)"
       id="g4"
       style="display:none">
      <path
         d="M 58,168 V 70 a 50,50 0 0 1 50,-50 h 20"
         class="orange"
         id="path1"
         style="fill:none;stroke:#ff6600;stroke-width:25" />
      <path
         d="m 58,168 v -30 a 50,50 0 0 1 50,-50 h 20"
         class="red"
         id="path2-3"
         style="fill:none;stroke:#d40000;stroke-width:25" />
      <circle
         cx="142"
         cy="20"
         r="18"
         class="orange"
         id="circle2"
         style="fill:none;stroke:#ff6600;stroke-width:15" />
      <circle
         cx="142"
         cy="88"
         r="18"
         class="red"
         id="circle3"
         style="fill:none;stroke:#d40000;stroke-width:15" />
      <circle
         cx="58"
         cy="180"
         r="18"
         class="red"
         id="circle4"
         style="fill:none;stroke:#d40000;stroke-width:15" />
    </g>
  </g>
</svg>
