<?xml version="1.0" encoding="UTF-8" standalone="no"?>
<svg
   version="1.1"
   viewBox="0 0 392.53659 162.94826"
   id="svg40"
   sodipodi:docname="logo.svg"
   inkscape:version="1.3.1 (5ab75fa947, 2023-11-03)"
   inkscape:export-filename="logo_transparent.png"
   inkscape:export-xdpi="96"
   inkscape:export-ydpi="96"
   width="392.53659"
   height="162.94826"
   xmlns:inkscape="http://www.inkscape.org/namespaces/inkscape"
   xmlns:sodipodi="http://sodipodi.sourceforge.net/DTD/sodipodi-0.dtd"
   xmlns="http://www.w3.org/2000/svg"
   xmlns:svg="http://www.w3.org/2000/svg">
  <defs
     id="defs44" />
  <sodipodi:namedview
     id="namedview42"
     pagecolor="#505050"
     bordercolor="#eeeeee"
     borderopacity="1"
     inkscape:pageshadow="0"
     inkscape:pageopacity="0"
     inkscape:pagecheckerboard="0"
     showgrid="false"
     inkscape:zoom="0.7071068"
     inkscape:cx="-446.89147"
     inkscape:cy="-99.702054"
     inkscape:window-width="2560"
     inkscape:window-height="1369"
     inkscape:window-x="-8"
     inkscape:window-y="-8"
     inkscape:window-maximized="1"
     inkscape:current-layer="g1"
     inkscape:showpageshadow="0"
     inkscape:deskcolor="#d1d1d1" />
  <g
     id="g2"
     inkscape:label="+1"
     transform="translate(-57.47,-171.54801)"
     style="display:inline">
    <path
       fill="#eceff4"
       d="m 198.86,212.32 -31,11.57 a 0.62,0.61 79.8 0 1 -0.83,-0.58 L 167.04,204 q 0,-0.55 0.51,-0.74 23.03,-8.68 46.02,-17.25 c 2.57,-0.96 4.78,-0.76 7.42,-0.75 a 0.49,0.49 0 0 1 0.49,0.49 v 132.32 a 0.79,0.79 0 0 1 -0.8,0.79 l -19.99,-0.01 q -1.17,0 -1.17,-1.16 V 212.78 a 0.49,0.49 0 0 0 -0.66,-0.46 z"
       id="path30" />
    <path
       fill="#eceff4"
       d="m 115.68,245.1 h 33.95 a 0.84,0.84 0 0 1 0.84,0.84 l -0.01,18.96 a 0.84,0.84 0 0 1 -0.84,0.84 l -33.88,0.03 a 0.84,0.84 0 0 0 -0.84,0.84 l -0.08,38.58 a 0.84,0.84 0 0 1 -0.84,0.84 l -20.11,-0.01 a 0.84,0.84 0 0 1 -0.84,-0.84 L 93.02,266.6 a 0.84,0.84 0 0 0 -0.84,-0.84 H 58.31 a 0.84,0.84 0 0 1 -0.84,-0.84 l 0.02,-19.02 a 0.84,0.84 0 0 1 0.84,-0.84 l 33.86,0.02 a 0.84,0.84 0 0 0 0.84,-0.84 v -35.79 a 0.84,0.84 0 0 1 0.84,-0.84 L 114,207.59 a 0.84,0.84 0 0 1 0.84,0.84 v 35.83 a 0.84,0.84 0 0 0 0.84,0.84 z"
       id="path32" />
  </g>
  <g
     id="g1"
     inkscape:label="social"
     style="display:inline"
     transform="translate(-57.47,-171.54801)">
    <path
       fill="#6b438b"
       d="m 385.52,276.27 q -0.36,4.08 -0.31,8.47 0.05,4.56 -4.49,8.19 -9.11,7.28 -17.84,-0.35 c -5.3,-4.65 -3.99,-10.34 -4.42,-16.25 -11.33,-3.3 -21.65,-12.47 -22.8,-24.59 q -0.53,-5.59 -0.95,-11.21 -0.04,-0.52 -0.53,-0.64 c -4.87,-1.23 -7.99,-2.08 -10.29,-6.94 -3.9,-8.23 0.79,-15.35 8.92,-18.12 a 0.4,0.39 -12.1 0 0 0.27,-0.41 c -0.74,-8.02 -1.4,-15.08 1.56,-22.79 3.11,-8.09 9.57,-14.26 17.53,-17.62 q 4.11,-1.73 10.44,-2.07 8.68,-0.46 17.4,-0.26 16.85,0.37 26.28,13.59 c 6.43,9.02 5.96,18.48 5.03,29.16 q -0.05,0.51 0.45,0.64 c 13.7,3.61 12.56,22.82 -1.42,24.78 a 0.71,0.71 0 0 0 -0.61,0.65 c -0.38,5.39 -0.17,11.34 -2.1,16.46 q -5.7,15.16 -22.12,19.31 z"
       id="path28" />
    <path
       fill="#533566"
       d="m 358.46,276.33 c 0.43,5.91 -0.88,11.6 4.42,16.25 q 8.73,7.63 17.84,0.35 4.54,-3.63 4.49,-8.19 -0.05,-4.39 0.31,-8.47 24.6,4 42.34,20.72 l -0.18,37.49 -110.93,0.01 -0.09,-37.61 q 17.53,-16.43 41.8,-20.55 z"
       id="path34" />
    <path
       fill="#6b438b"
       d="m 316.66,296.88 0.09,37.61 -21.38,-0.49 a 1.13,1.13 0 0 1 -1.04,-1.49 q 7.21,-21.29 22.33,-35.63 z"
       id="path36" />
    <path
       fill="#6b438b"
       d="m 427.86,296.99 q 12.71,12.03 19.9,29.52 1.79,4.36 2.23,6.86 0.11,0.61 -0.51,0.62 l -21.8,0.49 z"
       id="path38" />
  </g>
  <g
     transform="matrix(0.77226665,0,0,0.77226665,211.70732,4.2474666)"
     id="g4"
     style="display:none"
     inkscape:label="forgejo">
    <path
       d="M 58,168 V 70 a 50,50 0 0 1 50,-50 h 20"
       class="orange"
       id="path1"
       style="fill:none;stroke:#ff6600;stroke-width:25" />
    <path
       d="m 58,168 v -30 a 50,50 0 0 1 50,-50 h 20"
       class="red"
       id="path2-3"
       style="fill:none;stroke:#d40000;stroke-width:25" />
    <circle
       cx="142"
       cy="20"
       r="18"
       class="orange"
       id="circle2"
       style="fill:none;stroke:#ff6600;stroke-width:15" />
    <circle
       cx="142"
       cy="88"
       r="18"
       class="red"
       id="circle3"
       style="fill:none;stroke:#d40000;stroke-width:15" />
    <circle
       cx="58"
       cy="180"
       r="18"
       class="red"
       id="circle4"
       style="fill:none;stroke:#d40000;stroke-width:15" />
  </g>
</svg>
